<svg width="48" height="48" viewBox="0 0 48 48" fill="none" xmlns="http://www.w3.org/2000/svg">
<path d="M24.5846 44.5541C20.5204 44.6105 17.3785 44.6171 16.6921 44.4099C16.0058 44.2026 14.3188 43.6494 13.385 44.2133C12.4512 44.7771 12.1589 45.9124 11.1938 46.4185C9.72926 47.1865 8.72842 47.9182 6.88884 47.9923C3.73673 48.1192 0.817447 46.6808 0.18238 43.672C-0.596484 39.9818 1.18818 37.566 4.22175 35.332C5.46133 34.4192 7.66771 33.0693 8.11725 31.5831C8.46795 30.4237 7.37147 29.4071 6.67857 28.5659C2.24535 23.1834 1.13357 15.4921 4.11108 9.24974C5.55353 6.22564 7.88412 2.65133 12.0349 3.65638C13.8286 4.09071 15.4609 4.97954 17.3691 4.97954C19.2027 4.97954 21.0082 4.24977 22.659 3.60626C24.9857 2.69924 27.1349 1.41062 29.5314 0.659218C31.8913 -0.0806885 34.4037 -0.0728989 36.8687 0.0878563C40.094 0.298195 44.3876 0.443905 47.2272 2.0325C48.4765 2.73138 47.9397 4.09496 47.4928 5.09983C46.2959 7.79145 43.9554 9.98792 42.1144 12.3171C40.6412 14.1808 37.9818 17.0413 38.7501 19.5544C39.3322 21.4583 40.8421 20.8533 42.5451 21.8219C43.7056 22.4819 43.859 24.7653 43.1325 25.5687C41.6882 27.1661 40.007 28.8667 40.5208 31.0819C40.8683 32.5803 41.7763 33.8583 42.3357 35.2819C43.5092 38.2683 42.1912 40.4591 39.2591 41.9078C34.7215 44.1496 29.6557 44.4837 24.5846 44.5541Z" fill="#8B7FFF"/>
<path d="M22.2845 33.3814C19.1802 32.9079 16.8977 31.5733 15.4372 29.3775C15.1786 29.0027 14.9786 28.5677 14.8371 28.0726C14.7149 27.5804 14.6846 27.1318 14.7464 26.7269C14.8552 26.0135 15.1792 25.4414 15.7185 25.0107C16.277 24.5829 16.9129 24.4234 17.6264 24.5322C18.2048 24.6204 18.6759 24.8304 19.0397 25.1621C19.4063 25.4745 19.7466 25.9605 20.0603 26.62C20.6283 27.8115 21.5968 28.5117 22.9658 28.7205C23.6214 28.8205 24.1767 28.7374 24.6316 28.4714C25.0894 28.1861 25.3581 27.7831 25.4375 27.2625C25.5198 26.7226 25.3821 26.2676 25.0242 25.8973C24.6663 25.527 24.1018 25.2831 23.3305 25.1654L22.1157 24.9802C21.3637 24.8655 20.7791 24.5593 20.3617 24.0615C19.9473 23.5445 19.7916 22.9486 19.8945 22.2737C20.0033 21.5603 20.3229 21.0171 20.8534 20.6442C21.403 20.2743 22.0635 20.1481 22.8348 20.2658L23.9049 20.429C24.6183 20.5378 25.1899 20.477 25.6197 20.2466C26.0687 20.0191 26.3329 19.6451 26.4123 19.1245C26.4859 18.6424 26.3519 18.2274 26.0103 17.8793C25.6718 17.512 25.1554 17.2754 24.4612 17.1695C23.8635 17.0784 23.303 17.131 22.7798 17.3274C22.2788 17.5075 21.8306 17.7943 21.4352 18.1878C20.5495 19.0787 19.6633 19.4565 18.7763 19.3212C18.0821 19.2153 17.5375 18.9054 17.1424 18.3913C16.7695 17.8609 16.6374 17.239 16.7463 16.5256C16.8815 15.6386 17.401 14.8201 18.3046 14.07C19.1415 13.369 20.1626 12.8835 21.3679 12.6136C22.5925 12.3465 23.8892 12.3174 25.2582 12.5262C26.7815 12.7586 28.0544 13.2092 29.077 13.8782C30.1219 14.5308 30.8658 15.3447 31.309 16.3199C31.7551 17.2758 31.8914 18.3225 31.7179 19.4602C31.5679 20.4435 31.1753 21.2715 30.54 21.9441C29.9047 22.6167 29.0785 23.053 28.0615 23.253C29.0645 23.6625 29.8113 24.3288 30.3018 25.2521C30.8146 26.1589 30.9886 27.1523 30.8239 28.2321C30.6387 29.4468 30.164 30.4892 29.3999 31.3592C28.6388 32.2098 27.6386 32.8169 26.3994 33.1804C25.1794 33.5467 23.8078 33.6138 22.2845 33.3814Z" fill="white"/>
</svg>
