<svg width="48" height="48" viewBox="0 0 48 48" fill="none" xmlns="http://www.w3.org/2000/svg">
<path d="M13.8372 1.12941C11.6931 2.64473 11.4634 4.02348 11.4634 4.80982C11.4634 4.80982 11.4386 6.47273 10.9937 7.36543C10.5488 8.25813 10.4099 8.59472 9.3494 8.74153C8.77147 8.63405 8.48224 8.08927 8.17494 7.7586C7.51921 7.05302 7.02628 6.0505 6.00769 5.74605C4.24079 5.21793 -0.250867 4.64601 0.0109794 7.05658C0.373663 10.3955 4.30067 12.6053 6.04328 15.4559C8.15282 18.9066 6.41796 20.6119 3.51648 23.1106C-1.06188 27.0533 -0.12151 32.2347 0.633784 37.2583C1.0819 40.2389 1.78726 43.203 4.85106 45.0768C7.78994 46.8742 11.3365 48.0812 15.0117 47.9957C18.1255 47.9233 20.5241 46.5621 22.7166 44.8237C24.1353 43.6989 25.5061 42.2912 27.5567 42.0388C32.3556 41.4482 35.7787 45.6677 40.2797 45.3002C48.6278 44.6186 49.53 34.7008 46.1875 29.8866C43.7854 26.427 34.7927 24.6472 39.1409 19.8342C41.3264 17.4152 44.1317 15.2007 45.2621 12.2391C46.0793 10.0983 45.695 6.9995 42.8421 6.07368C37.3771 4.3002 31.1667 7.72942 25.4748 6.74384C22.5447 6.23649 22.2678 3.70237 21.2753 1.81446C19.9915 -0.627342 15.9215 -0.343595 13.8372 1.12941Z" fill="#00B99A"/>
<path d="M18.5216 35.1862C17.6292 35.279 16.8617 35.0647 16.2192 34.5433C15.5766 34.0218 15.2099 33.3246 15.1191 32.4516C15.0424 31.7144 15.1688 31.0443 15.4983 30.4413C15.8258 29.819 16.4038 29.249 17.2324 28.7314C19.0521 27.5616 20.5901 26.323 21.8464 25.0157C23.1201 23.687 23.6894 22.3728 23.5542 21.073C23.4835 20.3939 23.2253 19.8913 22.7796 19.5651C22.3532 19.2369 21.7812 19.1101 21.0634 19.1848C20.4814 19.2453 20.0048 19.4714 19.6337 19.8629C19.2821 20.2525 19.085 20.7142 19.0425 21.2481C19.0279 21.485 19.0266 21.6616 19.0388 21.778L19.0448 21.8362C19.1175 22.5346 18.9335 23.1224 18.4929 23.5997C18.0523 24.0769 17.4731 24.3529 16.7553 24.4276C15.9793 24.5083 15.3011 24.3043 14.7208 23.8156C14.1385 23.3075 13.8039 22.6363 13.7171 21.8021C13.5839 20.5217 13.8034 19.3321 14.3754 18.2332C14.9648 17.113 15.821 16.2003 16.9438 15.4952C18.0647 14.7707 19.3429 14.3338 20.7785 14.1844C23.0289 13.9503 24.9034 14.3436 26.4019 15.3644C27.9198 16.3831 28.7897 17.9594 29.0117 20.0934C29.3649 23.4884 27.4392 26.5616 23.2347 29.313L27.9489 28.8226C28.7444 28.7398 29.4215 28.9341 29.9804 29.4055C30.5373 29.8574 30.8561 30.4714 30.9368 31.2474C31.0155 32.004 30.8289 32.6607 30.3769 33.2176C29.9424 33.753 29.3177 34.0631 28.5029 34.1479L18.5216 35.1862Z" fill="white"/>
</svg>
