<svg width="96" height="48" viewBox="0 0 96 48" fill="none" xmlns="http://www.w3.org/2000/svg">
<mask id="mask0_51_1227" style="mask-type:alpha" maskUnits="userSpaceOnUse" x="0" y="0" width="96" height="48">
<path d="M15.4709 4.94345C14.9479 7.90952 16.7629 9.81628 20.4202 9.81628C24.1491 9.81628 26.5649 7.90952 27.0879 4.94345C27.6233 1.90676 25.88 0 22.151 0C18.4938 0 16.0063 1.90676 15.4709 4.94345Z" fill="#181818"/>
<path d="M29.5287 4.94345C29.0057 7.90952 30.8208 9.81628 34.478 9.81628C38.207 9.81628 40.6228 7.90952 41.1458 4.94345C41.6812 1.90676 39.9378 0 36.2089 0C32.5517 0 30.0642 1.90676 29.5287 4.94345Z" fill="#181818"/>
<path d="M9.27644 48C6.3741 48 -0.677915 46.4569 0.0527548 42.3132C1.43071 34.4985 8.79283 42.0018 9.72074 34.8297L11.6082 24.1252C12.2604 20.4263 12.9549 17.456 13.8525 15.2703C14.8738 13.0285 16.6747 11.8516 19.3494 11.8516C22.081 11.8516 23.3409 13.4208 23.4332 16.4472C23.4639 20.1461 22.5548 25.3022 21.2108 32.9242C21.1515 33.2604 21.1021 33.5406 21.0527 33.8209C19.4222 43.0681 15.0242 48 9.27644 48Z" fill="#181818"/>
<path d="M28.6698 40.6022C26.3935 40.6022 25.166 39.8176 24.646 38.2483C23.9774 36.2308 24.5873 31.8033 25.5657 26.2549C26.4847 21.0428 27.5053 16.223 28.8285 14.2054C29.9019 12.6362 31.5199 11.8516 33.7393 11.8516C35.9587 11.8516 37.2431 12.6362 37.7532 14.2615C38.4689 16.3351 37.6957 21.0428 36.7767 26.2549C35.7884 31.8593 34.9038 36.2307 33.504 38.3604C32.4973 39.8736 30.8892 40.6022 28.6698 40.6022Z" fill="#181818"/>
<path d="M50.2763 40.8264C46.2358 40.8264 43.622 37.5758 42.0865 32.0835C40.7517 27.7121 40.2231 21.9956 40.905 18.1285C41.5869 14.2615 42.7417 11.9076 47.0099 11.9076C50.026 11.9076 51.0187 13.7011 51.1312 17.9044C51.2654 20.3703 51.3452 22.5 51.2866 25.4143C51.3714 28.1604 51.8196 29.1692 52.3317 29.1692C52.9008 29.1692 53.6478 28.1604 54.7011 25.4143C55.737 22.4439 56.5579 20.3703 57.5618 17.9044C59.0997 13.7011 60.7248 11.9076 63.8548 11.9076C68.066 11.9076 68.4477 14.2615 67.7658 18.1285C67.084 21.9956 64.5395 27.7121 61.6631 32.0835C58.1337 37.5758 54.3737 40.8264 50.2763 40.8264Z" fill="#181818"/>
<path d="M81.1548 40.8264C69.5454 40.8264 67.1011 32.4198 68.1881 26.2549C69.2554 20.2022 74.2858 11.6835 84.8138 11.6835C92.838 11.6835 95.9642 16.223 94.7882 22.8923C94.136 26.5912 92.1224 28.3285 88.7079 28.3285C85.3503 28.3285 81.4335 28.2725 79.1571 28.2725C78.3035 28.2725 78.0166 28.6088 77.9178 29.1692C77.7004 30.4022 78.6361 32.1956 82.2783 32.1956C84.6115 32.1956 86.5215 31.6912 89.4239 31.6912C91.9848 31.6912 92.9996 33.0362 92.6142 35.222C92.041 38.4725 88.496 40.8264 81.1548 40.8264ZM83.0157 23.1725C85.9749 23.1725 86.4895 22.8362 86.6772 21.7714C86.9539 20.2022 86.0059 18.8011 83.6726 18.8011C81.1687 18.8011 79.4594 20.4263 79.1827 21.9956C79.0147 22.9483 79.4304 23.1725 83.0157 23.1725Z" fill="#181818"/>
</mask>
<g mask="url(#mask0_51_1227)">
<path d="M99.1211 31.6799C98.3262 33.6747 97.2483 36.1276 95.9855 36.8921L93.7636 39.2356C92.1866 40.6294 93.582 39.3993 92.0206 40.9899C90.4257 42.6147 88.9085 44.6731 87.0087 44.5584C85.0068 44.4376 85.3058 42.0102 86.1357 39.3335C86.5186 38.0985 88.7115 30.8338 86.6545 31.1493C85.3834 31.3442 83.5617 33.4535 82.5412 34.7783C81.4007 36.2588 80.5692 38.1281 79.3021 39.429C76.8106 41.9872 73.3183 39.7943 71.1617 38.1349C68.4618 36.0575 63.9401 30.3566 66.9762 24.5494C68.9164 20.8382 71.629 17.3906 70.473 12.3692C70.2775 11.5196 66.4505 15.4542 65.8279 15.7963C64.1956 16.6931 60.6241 16.9893 59.8045 14.1709C58.977 11.3258 62.9753 6.76725 64.052 5.49682C64.7593 4.66213 68.4776 -0.481278 65.8428 -1.10385C63.2374 -1.7195 60.0991 -0.152999 57.638 1.88716C54.664 4.35252 51.5929 6.37072 48.6105 8.80914C46.141 10.8282 41.7832 13.2366 39.7476 9.7913C37.7009 6.32709 39.3837 -0.465032 41.5732 -3.65874C45.9413 -10.0302 51.813 -14.6388 56.8517 -19.2899C62.1487 -24.1793 69.7572 -30.2801 75.2416 -25.8347C78.8868 -22.8801 77.7898 -15.3244 75.3954 -10.4735C74.7741 -9.21487 70.7403 -1.56453 73.3548 -1.22476C77.7362 -0.655346 82.3935 -8.76727 86.0277 -3.19285C87.3003 -1.24083 86.1967 1.86271 85.4607 4.19878C84.094 8.53683 81.1344 12.2545 79.092 15.8309C77.9073 17.9053 76.665 20.1191 76.399 22.8961C76.2529 24.4215 76.0139 27.3472 77.1801 27.8499C78.2733 28.3213 79.4394 27.346 80.4765 26.6198C82.0357 25.528 83.6313 24.6375 85.1993 23.594C87.8001 21.863 102.401 10.6347 101.156 21.9928C100.808 25.1669 100.253 28.8406 99.1211 31.6799Z" fill="#F9C558"/>
<path d="M104.121 34.6799C103.326 36.6747 102.248 39.1276 100.985 39.8921L98.7636 42.2356C97.1866 43.6294 98.582 42.3993 97.0206 43.9899C95.4257 45.6147 93.9085 47.6731 92.0087 47.5584C90.0068 47.4376 90.3058 45.0102 91.1357 42.3335C91.5186 41.0985 93.7115 33.8338 91.6545 34.1493C90.3834 34.3442 88.5617 36.4535 87.5412 37.7783C86.4007 39.2588 85.5692 41.1281 84.3021 42.429C81.8106 44.9872 78.3183 42.7943 76.1617 41.1349C73.4618 39.0575 68.9401 33.3566 71.9762 27.5494C73.9164 23.8382 76.629 20.3906 75.473 15.3692C75.2775 14.5196 71.4505 18.4542 70.8279 18.7963C69.1956 19.6931 65.6241 19.9893 64.8045 17.1709C63.977 14.3258 67.9753 9.76725 69.052 8.49682C69.7593 7.66213 73.4776 2.51872 70.8428 1.89615C68.2374 1.2805 65.0991 2.847 62.638 4.88716C59.664 7.35252 56.5929 9.37072 53.6105 11.8091C51.141 13.8282 46.7832 16.2366 44.7476 12.7913C42.7009 9.32709 44.3837 2.53497 46.5732 -0.658741C50.9413 -7.03016 56.813 -11.6388 61.8517 -16.2899C67.1487 -21.1793 74.7572 -27.2801 80.2416 -22.8347C83.8868 -19.8801 82.7898 -12.3244 80.3954 -7.47348C79.7741 -6.21487 75.7403 1.43547 78.3548 1.77524C82.7362 2.34465 87.3935 -5.76727 91.0277 -0.192854C92.3003 1.75917 91.1967 4.86271 90.4607 7.19878C89.094 11.5368 86.1344 15.2545 84.092 18.8309C82.9073 20.9053 81.665 23.1191 81.399 25.8961C81.2529 27.4215 81.0139 30.3472 82.1801 30.8499C83.2733 31.3213 84.4394 30.346 85.4765 29.6198C87.0357 28.528 88.6313 27.6375 90.1993 26.594C92.8001 24.863 107.401 13.6347 106.156 24.9928C105.808 28.1669 105.253 31.8406 104.121 34.6799Z" fill="#F9C558"/>
<path d="M40.5001 -2.08534C40.2334 -4.03277 36.7141 -1.14538 35.765 -2.08537L34.3133 -4.63339C33.224 -6.20048 34.1886 -4.81671 33.1561 -6.5569C32.1014 -8.3345 31.2103 -10.4849 29.506 -10.7659C27.7101 -11.0621 27.4438 -8.82739 27.5923 -6.26203C27.6608 -5.07845 28.0112 1.87189 26.262 1.17377C25.181 0.742364 24.0319 -1.5151 23.4194 -2.90795C22.7349 -4.46446 22.4086 -6.30688 21.5729 -7.72815C19.9298 -10.5229 16.3636 -9.26421 14.0947 -8.21347C11.2542 -6.89805 6.0113 -2.70493 7.42555 3.11017C8.32935 6.82645 9.97342 10.4626 7.85413 14.727C7.49555 15.4485 4.97288 11.151 4.49733 10.7188C3.25056 9.58567 0.158461 8.59887 -1.1821 10.9578C-2.53536 13.3391 0.00234211 18.2302 0.676327 19.5857C1.11914 20.4763 3.28151 25.8346 0.816541 25.86C-1.62101 25.8851 -4.05258 23.848 -5.78199 21.5233C-7.87185 18.7142 -10.1453 16.2859 -12.2485 13.4992C-13.9899 11.1918 -17.3154 8.15404 -19.8678 10.829C-22.4341 13.5186 -22.4313 19.9425 -21.194 23.2456C-18.7257 29.8352 -14.543 35.1496 -11.1059 40.3338C-7.49259 45.7835 -2.10085 52.7853 3.71858 49.9113C7.58635 48.0012 8.2682 41.0116 7.2121 36.1827C6.93808 34.9298 5.04478 27.2621 7.42995 27.4859C11.4272 27.861 13.7708 36.0681 18.2015 31.809C19.753 30.3176 19.4559 27.3146 19.316 25.0734C19.0561 20.9115 20.0235 21.1162 18.9999 17.5C18.4062 15.4025 21.201 21.5413 21.5729 19C21.7772 17.6042 20.4323 17.2148 21.5729 17C22.6423 16.7987 22.6615 13.867 23.4194 14.727C24.5589 16.02 24.3421 11.0537 25.4999 12.3052C27.4205 14.3811 40.6178 14.4255 42 4C42.3863 1.08654 40.8796 0.686541 40.5001 -2.08534Z" fill="#00B99A"/>
<path d="M23.0699 4.90501C25.7562 4.21293 28.4644 2.96742 31.0959 1.96515L32.3236 1.09301C35.0685 -1.26078 30.852 -1.48018 27.8608 -1.62866C26.17 -1.7126 24.2556 -5.32527 22.4919 -5C19.458 -4.44046 16.0115 0.140135 14.0429 -1.45504C11.3453 -3.64093 11.8397 -7.86107 15.7192 -10.3317C18.5378 -12.1268 19.5217 -16.9135 22.4919 -18.3499C24.4837 -19.3131 30.9856 -17.8349 30.4165 -19.9657C29.8929 -21.9258 27.3288 -23.5274 25.356 -24.0768C24.168 -24.4076 25.3904 -23.7275 25.4151 -25.142C25.4255 -25.7326 25.2264 -26.806 25.6705 -26.9752C27.5947 -27.7081 23.6817 -32.7667 25.0421 -34.304C26.6856 -36.1613 25.5937 -36.8247 24.9735 -38.5842C23.6978 -42.2029 26.0068 -41.5048 22.6258 -43.6728C19.0379 -45.9736 14.3183 -49.6309 8.79894 -48.897C7.00968 -48.6591 4.3276 -47.7121 2.94862 -46.3763C1.86907 -45.3306 2.30685 -43.9273 2.77977 -43.0557C3.88672 -41.0156 6.16417 -39.4032 8.3713 -38.2633C11.2274 -36.7881 14.5579 -36.294 17.6702 -35.2143C19.3357 -34.6366 20.0484 -32.3836 17.9459 -31.0296C15.1097 -29.203 11.6145 -28.7905 8.74298 -27.037C6.49573 -25.6647 6.91097 -23.5709 7.81802 -22.1708C8.80801 -20.6426 10.8311 -19.8424 12.7912 -19.3169C14.0767 -18.9723 17.9419 -18.3434 16.9998 -16.4546C16.1598 -14.7704 13.6898 -13.5768 11.9726 -12.6876C9.42812 -11.3698 6.41253 -10.1836 4.12687 -8.46117C2.22677 -7.02931 1.7085 -5.80847 2.37114 -4.11695C4.11915 0.345211 9.60411 2.32214 14.3076 4.14753C16.6814 5.06876 20.0892 5.67294 23.0699 4.90501Z" fill="#8B7FFF"/>
<path d="M68.4762 25.4179C68.1987 22.1944 67.966 21.0833 67.2452 19.5394C66.396 17.7209 66.4343 17.1618 65.1444 16.4421C63.8546 15.7225 63.4384 15.2957 61.588 15.4946C59.5264 15.7161 57.1523 18.4848 57.1523 18.4848C56.5825 18.9917 55.7753 19.8416 55.3588 20.3738C54.708 21.2053 51.7345 25.9557 49.1368 30.3141C48.01 32.2047 46.8338 32.5503 46.3123 31.144C46.2125 30.8749 46.4322 28.9534 46.8006 26.8738C47.9305 20.4942 48.3145 17.5513 48.1195 16.7645C47.8619 15.7236 46.8279 14.569 45.8831 14.2667C42.8129 13.2846 46.5953 -6.31372 44.341 -2.5C42.9448 -0.137871 38.5748 -5.16307 38 -5C37.2671 -4.79199 27.9013 -2.88885 25.5384 -4.53497C25.2119 -5.53844 25.003 -5.98231 25 -5.5C24.9975 -5.09167 25.1933 -4.77545 25.5384 -4.53497C26.8103 -0.627157 29.8672 11.7673 29.5 11C28.0534 7.97707 26.7908 11.3229 23.16 13.4527C19.555 15.5672 19.1043 17.8435 20.599 26.3908C21.1532 29.5612 21.1982 30.4081 20.9535 33.055C20.5692 37.2065 21.1946 38.9105 23.2568 39.3313C25.715 39.8332 27.5178 52.5784 31.7221 48C34.3693 45.117 35.5387 30.5335 36.3048 31.2339C36.8423 31.7252 36.8432 31.6993 36.1446 36.7416C35.6748 40.1315 35.938 42.7317 36.9237 44.442C39.2631 48.5008 41.0748 49.1885 44.341 47.2578C47.4789 45.4031 49.6938 42.5313 54.8446 33.6407C56.5011 30.7813 57.1881 30.1152 57.8903 30.6869C58.2604 30.988 57.6354 35.4258 56.9194 37.5819L55.91 44.8731C56.1082 46.9738 57.0354 48.9695 58.2722 49.9578C59.5179 50.9527 61.9479 51.1164 63.877 50.3348C66.364 49.3272 67.5321 48.0116 68.9947 44.5695C70.3438 41.3951 70.5917 37.0193 69.6539 32.9335C69.0747 30.4103 68.7001 28.0202 68.4762 25.4179Z" fill="#FE8363"/>
<path d="M-1.37325 25.7281C-0.802433 21.5739 0.418472 17.3153 1.35975 13.204L2.27556 11.2339C4.79899 6.77688 5.44152 13.129 5.8889 17.6363C6.14179 20.1841 5.12696 23.873 4.90433 26.5838C4.52136 31.247 4.88395 35.795 6.9428 38.5683C9.76407 42.3687 14.6915 41.0767 17.2493 34.8878C19.1077 30.3912 19.7076 25.2614 21.1295 20.5816C22.0831 17.4434 24.6998 10.8192 27.2623 11.4059C29.6195 11.9456 30.6968 16.7829 31.5238 19.6974C32.0218 21.4524 32.9894 25.0795 34.6538 24.8598C35.3488 24.7681 35.7256 22.4778 35.8845 21.7838C36.5727 18.7777 37.4093 14.8527 39.0968 12.596C41.1355 9.86952 43.4972 9.53368 45.6269 10.2455C50.0069 11.7095 53.0429 15.3029 55.9054 20.1398C58.943 25.2725 63.6822 31.943 63.3201 40.3897C63.2028 43.1279 62.3312 47.3085 60.8829 49.5674C59.7491 51.3357 58.0557 50.8541 56.9857 50.2508C54.4811 48.8387 52.3738 45.6002 50.8296 42.4072C48.8314 38.2754 47.9458 33.2993 46.3902 28.7287C45.5578 26.2829 42.8383 25.4948 41.4343 28.8509C39.5404 33.3781 39.3728 38.7203 37.5681 43.2915C36.1559 46.8689 33.651 46.5104 31.9186 45.3183C30.0278 44.0172 28.9007 41.0589 28.103 38.1606C27.5799 36.2597 26.4869 30.4919 24.3472 32.1608C22.4392 33.649 21.2578 37.5405 20.3664 40.2535C19.0454 44.2738 17.9224 48.99 16.1011 52.6706C14.587 55.7305 13.1957 56.6721 11.1423 55.8873C5.72541 53.8172 2.8965 45.772 0.317302 38.8898C-0.984343 35.4165 -2.00662 30.3375 -1.37325 25.7281Z" fill="#0590CB"/>
<path d="M53.7817 46.3576C56.5108 46.8547 59.4917 46.8585 62.3011 47.051L63.7812 46.7734C67.2597 45.7863 63.5231 43.8204 60.8693 42.4324C59.3692 41.6477 56.7994 41.6105 55.0617 41.1669C52.0725 40.4038 49.3691 39.0738 48.25 36.8006C46.7164 33.6856 48.9334 30.0609 53.4912 29.443C56.8026 28.994 59.7014 25.0599 63.0002 25.0001C65.2123 24.96 70.4967 29.0264 70.8726 26.8532C71.2185 24.854 69.5613 22.3255 68.0002 21.0001C67.0601 20.202 67.8851 21.3317 68.5002 20.0577C68.757 19.5257 69.026 18.4676 69.5002 18.5001C71.5544 18.6409 70.1208 12.4082 72.0001 11.5823C74.2706 10.5845 73.5571 9.52463 73.7311 7.66711C74.089 3.84688 75.893 5.44817 73.7315 2.06303C71.4376 -1.52924 68.6846 -6.82752 63.3655 -8.47361C61.6412 -9.00724 58.8091 -9.27109 56.9974 -8.63599C55.579 -8.13879 55.3885 -6.68115 55.4528 -5.69163C55.6032 -3.37548 56.9955 -0.957212 58.522 1.00261C60.4972 3.53866 63.3142 5.38274 65.6879 7.66706C66.9581 8.88943 66.6613 11.2337 64.1849 11.5823C60.8443 12.0525 57.4979 10.9626 54.1559 11.3517C51.5404 11.6562 51.0402 13.7313 51.2772 15.3827C51.5358 17.1851 53.0375 18.7593 54.5971 20.0577C55.62 20.9092 58.866 23.0996 57.2193 24.4199C55.7509 25.5973 53.0081 25.6461 51.0763 25.7342C48.2138 25.8646 44.9787 25.6782 42.1816 26.2845C39.8564 26.7885 38.8743 27.6799 38.7673 29.4934C38.485 34.2774 42.637 38.3705 46.143 41.9987C47.9123 43.8297 50.7535 45.8061 53.7817 46.3576Z" fill="#8B7FFF"/>
<path d="M111.726 12.3982C116.22 12.9303 118.25 12.828 122.789 11.3353C122.789 11.3353 125.619 10.1268 127.743 9.6687C129.868 9.21058 132.637 10.2761 132.012 12.1443C131.407 13.9528 130.221 14.8915 128.729 16.8116C127.052 18.9687 121.347 22.0157 119.064 22.6253C113.893 24.0061 108.872 23.7619 106.397 21.7512C105.465 20.9942 104.945 19.87 104.28 18.9094L101.838 15.3794C101.086 14.2927 100.464 13.0879 98.7181 12.8309C96.3938 12.4888 95.3957 15.0879 95.0765 16.4219C94.3783 19.3394 93.2379 22.0604 91.7328 25.1844C90.7024 27.3232 88.7322 28.668 86.0633 29.7401C83.1376 30.9154 80.2951 30.3875 77.9991 30.4255C76.8195 30.445 75.055 30.4357 73.6012 31.6969C72.4548 32.6915 72.3485 35.0367 72.1689 35.8659C71.8145 37.5024 70.206 39.0015 68.0901 40.16C66.2727 41.1551 63.3139 41.5668 61.9065 41.5203C59.6411 41.4455 58.2903 40.2354 55.7586 40.5073C53.6073 40.7384 51.227 41.1174 48.7219 42.1875C46.3732 43.1908 44.1401 44.3838 41.9361 44.7753C38.1099 45.4549 36.8941 42.785 36.8052 40.3279C36.7218 38.0242 37.5019 32.0216 42.6656 30.2718C46.8296 28.8607 48.6885 31.234 51.5 31.6969C53.5155 32.0288 52.0183 37.1022 54 37.5C56.1604 37.9336 61.6163 32.6161 64.3455 32.3491C67.471 32.0434 68.3128 29.1889 68.6242 27.5811C69.0065 25.6082 70.2151 23.0722 73.5874 22.0043C77.5282 20.7563 80.6567 27.4794 85.576 21.2976C87.223 19.228 86.256 17.205 85.9051 15.888C85.3578 13.8342 85.1739 11.3774 87.1092 8.41912C90.6099 3.06775 99.3627 8.02075 100.737 8.63821C104.154 10.1733 107.318 11.8762 111.726 12.3982Z" fill="#FFC7C7"/>
<path d="M56.6365 74.2275C56.0181 75.7117 55.1784 77.5363 54.1841 78.1012L52.4396 79.8395C51.2002 80.8723 52.2969 79.9608 51.0708 81.1404C49.8183 82.3454 48.6294 83.8741 47.1274 83.7807C45.5446 83.6823 45.7689 81.8735 46.4116 79.8809C46.7081 78.9616 48.4053 73.5535 46.7812 73.7802C45.7775 73.9203 44.3482 75.4857 43.5482 76.4693C42.6542 77.5686 42.0063 78.9591 41.0113 79.9239C39.0548 81.8211 36.2839 80.1715 34.5713 78.9252C32.4273 77.3649 28.8255 73.0951 31.1962 68.7774C32.7113 66.018 34.838 63.4584 33.8997 59.7093C33.7409 59.0749 30.7358 61.993 30.2454 62.2456C28.9598 62.9076 26.1387 63.1136 25.4769 61.0086C24.8089 58.8837 27.9463 55.501 28.7909 54.5581C29.3459 53.9386 32.2591 50.1186 30.1737 49.6435C28.1115 49.1736 25.639 50.3287 23.704 51.8399C21.3658 53.6659 18.9485 55.1582 16.6035 56.9641C14.6618 58.4595 11.2296 60.2374 9.60383 57.6598C7.96914 55.0682 19.7854 50.5417 21.5 48.1692C24.9207 43.4362 19.0186 39.4926 22.9779 36.0452C27.14 32.4212 33.1231 27.9034 37.4796 31.241C40.375 33.4592 39.5454 39.0888 37.677 42.6962C37.1923 43.6322 34.0421 49.3202 36.11 49.5844C39.5756 50.0271 43.2163 43.9975 46.116 48.1692C47.1315 49.6301 46.2746 51.9398 45.7044 53.6787C44.6458 56.9079 42.3251 59.6678 40.7286 62.3262C39.8025 63.8682 38.8316 65.5139 38.6351 67.5835C38.5272 68.7204 38.3528 70.901 39.2769 71.2808C40.1433 71.6368 41.0601 70.9144 41.8761 70.3771C43.103 69.5694 44.3597 68.912 45.5937 68.1403C47.6407 66.8603 59.1244 58.548 58.1966 67.0124C57.9373 69.3778 57.5167 72.115 56.6365 74.2275Z" fill="#F9C558"/>
<path d="M103.726 7.39816C108.22 7.93034 110.25 7.82804 114.789 6.33533C114.789 6.33533 117.619 5.12682 119.743 4.6687C121.868 4.21058 124.637 5.27609 124.012 7.1443C123.407 8.95277 122.221 9.89151 120.729 11.8116C119.052 13.9687 113.347 17.0157 111.064 17.6253C105.893 19.0061 100.872 18.7619 98.3966 16.7512C97.4648 15.9942 96.9445 14.87 96.28 13.9094L93.8381 10.3794C93.0864 9.29267 92.4638 8.08786 90.7181 7.83093C88.3938 7.48884 87.3957 10.0879 87.0765 11.4219C86.3783 14.3394 85.2379 17.0604 83.7328 20.1844C82.7024 22.3232 80.7322 23.668 78.0633 24.7401C75.4166 25.8033 72.8379 25.4726 70.6704 25.4281C68.9878 27.454 67.3785 28.9372 65.6012 29.5C65.0038 29.6892 64.5851 29.875 64.2984 30.0636C64.2495 30.3903 64.2112 30.6703 64.1689 30.8659C64.1115 31.131 64.0211 31.3925 63.9011 31.6495C64.0754 32.1633 64.3122 32.7604 64.1689 33.5C63.8574 35.1078 67.2944 38.6943 64.1689 39C63.2593 39.089 62.2331 40.1665 61.189 41.5477C61.9614 43.6844 62.6243 45.5206 62 45.5C61.4713 45.4825 60.5515 44.9141 59.4199 44.0564C57.9376 46.2177 56.5335 48.2075 55.5 48C53.5183 47.6022 50.405 68.2589 45 46C42.1885 45.5371 45.664 50.0889 41.5 51.5C36.648 53.1442 31.1285 46.1329 30.549 47.1916C30.505 47.9347 30.5251 48.1929 30.5 47.5C30.495 47.3609 30.5118 47.2596 30.549 47.1916C30.6611 45.2995 31.1889 40.2633 33.9361 39.7753C36.1401 39.3838 38.3732 38.1908 40.7219 37.1875C43.227 36.1174 45.6073 35.7384 47.7586 35.5073C49.6994 35.2988 55.7028 41.2387 59.4199 44.0564C60.0034 43.2055 60.5991 42.3281 61.189 41.5477C60.2201 38.8671 59.0788 35.7137 60.0901 35.16C61.8633 34.1892 63.28 32.9791 63.9011 31.6495C63.6927 31.0355 63.5734 30.5405 64.2984 30.0636C64.4565 29.0054 64.7253 27.4569 65.6012 26.6969C67.055 25.4357 68.8195 25.445 69.9991 25.4255C70.218 25.4218 70.4419 25.4234 70.6704 25.4281C72.7185 22.9619 74.8753 19.6914 77.576 16.2976C79.223 14.228 78.256 12.205 77.9051 10.888C77.3578 8.83419 77.1739 6.37737 79.1092 3.41912C82.6099 -1.93225 91.3627 3.02075 92.7372 3.63821C96.1543 5.17331 99.3182 6.87623 103.726 7.39816Z" fill="#FFC7C7"/>
<path d="M111.5 37.9145C111.233 35.9671 107.714 38.8545 106.765 37.9145L105.313 35.3665C104.224 33.7994 105.189 35.1832 104.156 33.443C103.101 31.6654 102.21 29.515 100.506 29.234C98.7101 28.9378 98.4438 31.1725 98.5923 33.7378C98.6608 34.9214 99.0112 41.8718 97.262 41.1736C96.181 40.7422 95.0319 38.4848 94.4194 37.0919C93.7349 35.5354 93.4086 33.693 92.5729 32.2717C90.9298 29.4769 87.3636 30.7357 85.0947 31.7864C82.2542 33.1018 77.0113 37.2949 78.4255 43.11C79.3294 46.8263 80.9734 50.4625 78.8541 54.7268C78.4956 55.4484 75.9729 51.1508 75.4973 50.7187C74.2506 49.5856 71.1585 48.5988 69.8179 50.9577C68.4646 53.339 71.0023 58.2301 71.6763 59.5856C72.1191 60.4762 74.2815 65.8345 71.8165 65.8599C69.379 65.885 66.9474 63.8478 65.218 61.5232C63.1281 58.714 60.8547 56.2858 58.7515 53.4991C57.0101 51.1917 53.6846 48.1539 51.1322 50.8289C48.5659 53.5184 48.5687 59.9424 49.806 63.2455C52.2743 69.8351 56.457 75.1495 59.8941 80.3337C63.5074 85.7834 68.8991 92.7852 74.7186 89.9112C78.5864 88.0011 79.2682 81.0115 78.2121 76.1825C77.9381 74.9296 76.0448 67.2619 78.43 67.4858C82.4272 67.8609 84.7708 76.068 89.2015 71.8089C90.753 70.3174 90.4559 67.3145 90.316 65.0733C90.0561 60.9114 91.0235 61.116 89.9999 57.4999C89.4062 55.4024 92.201 61.5411 92.5729 58.9999C92.7772 57.604 91.4323 57.2147 92.5729 56.9999C93.6423 56.7986 93.6615 53.8668 94.4194 54.7268C95.5589 56.0198 95.3421 51.0535 96.4999 52.3051C98.4205 54.381 111.618 54.4254 113 43.9999C113.386 41.0864 111.88 40.6864 111.5 37.9145Z" fill="#00B99A"/>
<path d="M107.726 12.3982C112.22 12.9303 114.25 12.828 118.789 11.3353C118.789 11.3353 121.619 10.1268 123.743 9.6687C125.868 9.21058 128.637 10.2761 128.012 12.1443C127.407 13.9528 126.221 14.8915 124.729 16.8116C123.052 18.9687 117.347 22.0157 115.064 22.6253C109.893 24.0061 104.872 23.7619 102.397 21.7512C101.465 20.9942 100.945 19.87 100.28 18.9094L97.8381 15.3794C97.0864 14.2927 96.4638 13.0879 94.7181 12.8309C92.3938 12.4888 91.3957 15.0879 91.0765 16.4219C90.3783 19.3394 89.2379 22.0604 87.7328 25.1844C86.7024 27.3232 84.7322 28.668 82.0633 29.7401C79.1376 30.9154 76.2951 30.3875 73.9991 30.4255C72.8195 30.445 71.055 30.4357 69.6012 31.6969C68.4548 32.6915 68.3485 35.0367 68.1689 35.8659C67.8145 37.5024 66.206 39.0015 64.0901 40.16C62.5661 40.9944 60.2396 41.4187 58.6982 41.5065C55.2941 45.1358 50.8439 50.7213 49.5 50.5C46.6885 50.0371 47.664 46.5889 43.5 48C40.9103 48.8776 41.9033 47.6666 43.5473 46.5319C39.9484 46.3459 35.5351 45.2018 37.9361 44.7753C40.1401 44.3838 42.3732 43.1908 44.7219 42.1875C47.227 41.1174 50.3486 45.7311 52.5 45.5C55.0317 45.2281 55.6411 41.4455 57.9065 41.5203C58.1338 41.5279 58.4014 41.5234 58.6982 41.5065C60.3996 39.6927 61.8396 38.3674 62.5 38.5C64.6604 38.9336 61.3609 34.267 64.0901 34C67.2156 33.6943 64.3128 29.1889 64.6242 27.5811C65.0065 25.6082 66.2151 23.0722 69.5874 22.0043C73.5282 20.7563 76.6567 27.4794 81.576 21.2976C83.223 19.228 82.256 17.205 81.9051 15.888C81.3578 13.8342 81.1739 11.3774 83.1092 8.41912C86.6099 3.06775 95.3627 8.02075 96.7372 8.63821C100.154 10.1733 103.318 11.8762 107.726 12.3982Z" fill="#FFC7C7"/>
<path d="M-27.0398 3.67757C-26.8409 1.93396 -26.509 -0.234064 -25.5991 -1.13195L-24.2448 -3.48896C-23.2171 -4.95204 -24.1273 -3.65992 -23.1617 -5.27247C-22.1753 -6.91967 -21.3638 -8.88591 -19.6825 -9.25184C-17.9109 -9.63742 -17.5715 -7.67586 -17.6324 -5.39291C-17.6605 -4.33963 -17.774 1.84205 -16.0622 1.10354C-15.0045 0.647191 -13.9406 -1.43163 -13.3798 -2.70765C-12.7532 -4.13358 -12.4916 -5.78826 -11.7105 -7.10475C-10.1746 -9.6935 -6.59452 -8.82298 -4.30831 -8.04774C-1.44619 -7.07721 3.89604 -3.722 2.68897 1.52689C1.91756 4.88132 0.409102 8.21552 2.6551 11.8481C3.03513 12.4628 5.3929 8.48235 5.85009 8.06683C7.04874 6.97743 10.0829 5.89105 11.4922 7.889C12.9149 9.90588 10.5622 14.4132 9.93925 15.6603C9.52997 16.4797 7.56536 21.3753 10.0115 21.2287C12.4304 21.0837 14.7739 19.112 16.4112 16.9339C18.3898 14.3018 24.0075 13.8313 26 11.2182C27.6498 9.05445 32 -9.25184 38.5 -2.70765C41.1364 -0.500874 28.1161 10.4888 27 13.5C24.7734 19.5074 25.5613 28.4051 22.3262 33.2337C18.9254 38.3098 13.8125 44.8829 7.94277 42.7359C4.04156 41.309 3.12972 35.1634 4.01473 30.8127C4.24435 29.6839 5.86426 22.7609 3.50567 23.1228C-0.447017 23.7293 -2.49543 31.1611 -7.03422 27.6918C-8.6236 26.4769 -8.42997 23.796 -8.36666 21.8008C-8.24911 18.0958 -6.59239 14.4921 -5.6988 11.2182C-5.18048 9.31915 -4.64639 7.29783 -5.10091 5.07196C-5.35058 3.8493 -5.86532 1.51415 -7.00412 1.40213C-8.07173 1.29711 -8.84541 2.33585 -9.56831 3.14976C-10.6552 4.37347 -11.8235 5.44909 -12.9299 6.6373C-14.7652 8.60824 -24.6949 20.849 -26.4172 11.7074C-26.8986 9.15273 -27.3229 6.15934 -27.0398 3.67757Z" fill="#7DE2F2"/>
</g>
</svg>
