<svg width="199" height="101" viewBox="0 0 199 101" fill="none" xmlns="http://www.w3.org/2000/svg">
<path d="M32.5828 10.4759C31.4932 16.6553 35.2746 20.6277 42.8938 20.6277C50.6624 20.6277 55.6954 16.6553 56.7849 10.4759C57.9005 4.1495 54.2684 0.177078 46.4998 0.177078C38.8806 0.177078 33.6983 4.1495 32.5828 10.4759Z" fill="#181818"/>
<path d="M61.87 10.4759C60.7804 16.6553 64.5618 20.6277 72.181 20.6277C79.9496 20.6277 84.9826 16.6553 86.0721 10.4759C87.1877 4.1495 83.5556 0.177078 75.787 0.177078C68.1678 0.177078 62.9855 4.1495 61.87 10.4759Z" fill="#181818"/>
<path d="M19.6777 100.177C13.6312 100.177 -1.0605 96.9624 0.461728 88.3295C3.33247 72.0489 18.6702 87.6809 20.6034 72.7389L24.5356 50.438C25.8944 42.7319 27.3412 36.5438 29.2112 31.9902C31.3388 27.3198 35.0908 24.8679 40.6631 24.8679C46.354 24.8679 48.9787 28.1371 49.1711 34.4421C49.235 42.1482 47.3409 52.8899 44.541 68.7691C44.4175 69.4696 44.3146 70.0534 44.2116 70.6372C40.8147 89.9023 31.6522 100.177 19.6777 100.177Z" fill="#181818"/>
<path d="M60.0806 84.765C55.3382 84.765 52.781 83.1303 51.6976 79.8611C50.3047 75.6578 51.5754 66.4339 53.6136 54.8748C55.5283 44.0163 57.6545 33.9751 60.4112 29.7718C62.6474 26.5025 66.0182 24.8679 70.642 24.8679C75.2659 24.8679 77.9416 26.5025 79.0044 29.8885C80.4953 34.2086 78.8845 44.0163 76.9698 54.8748C74.9111 66.5507 73.0681 75.6578 70.1517 80.0946C68.0546 83.2471 64.7044 84.765 60.0806 84.765Z" fill="#181818"/>
<path d="M105.094 85.232C96.6763 85.232 91.2311 78.46 88.032 67.0177C85.2512 57.9105 84.15 46.0012 85.5706 37.9449C86.9911 29.8885 89.3971 24.9847 98.289 24.9847C104.573 24.9847 106.641 28.7209 106.875 37.4778C107.155 42.6152 107.321 47.052 107.199 53.1234C107.376 58.8446 108.309 60.9463 109.376 60.9463C110.562 60.9463 112.118 58.8446 114.312 53.1234C116.471 46.9352 118.181 42.6152 120.272 37.4778C123.476 28.7209 126.862 24.9847 133.383 24.9847C142.156 24.9847 142.951 29.8885 141.531 37.9449C140.11 46.0012 134.809 57.9105 128.817 67.0177C121.464 78.46 113.63 85.232 105.094 85.232Z" fill="#181818"/>
<path d="M169.424 85.232C145.238 85.232 140.146 67.7182 142.41 54.8748C144.634 42.2649 155.114 24.5176 177.047 24.5176C193.764 24.5176 200.277 33.9751 197.827 47.8693C196.469 55.5754 192.274 59.1949 185.16 59.1949C178.165 59.1949 170.005 59.0781 165.263 59.0781C163.484 59.0781 162.886 59.7787 162.68 60.9463C162.228 63.5149 164.177 67.2512 171.765 67.2512C176.626 67.2512 180.605 66.2004 186.652 66.2004C191.987 66.2004 194.101 69.0026 193.298 73.5562C192.104 80.3281 184.719 85.232 169.424 85.232ZM173.301 48.4531C179.466 48.4531 180.538 47.7526 180.929 45.5341C181.506 42.2649 179.531 39.346 174.67 39.346C169.453 39.346 165.892 42.732 165.316 46.0012C164.966 47.9861 165.832 48.4531 173.301 48.4531Z" fill="#181818"/>
</svg>
