<svg width="680" height="1266" viewBox="0 0 680 1266" fill="none" xmlns="http://www.w3.org/2000/svg">
<g clip-path="url(#clip0_222_206)">
<path d="M625.696 331.765C623.376 343.487 619.974 358.003 613.842 363.471L604.07 378.552C596.86 387.781 603.243 379.632 596.319 389.922C589.245 400.434 583.038 413.239 572.528 414.544C561.452 415.919 560.619 402.335 562.437 386.846C563.276 379.7 567.884 337.724 556.951 341.542C550.195 343.902 542.374 357.295 538.138 365.581C533.404 374.84 530.756 385.913 525.148 394.32C514.118 410.85 492.781 402.405 479.295 395.52C462.41 386.9 431.873 360.309 442.577 325.45C449.417 303.172 460.751 281.551 449.319 255.255C447.385 250.806 430.449 276.224 427.391 278.729C419.373 285.296 400.135 290.549 392.783 275.964C385.362 261.24 402.6 232.233 407.199 224.187C410.22 218.901 425.331 186.979 410.283 186.253C395.402 185.535 379.826 197.297 368.436 210.963C354.673 227.476 339.924 241.641 326.087 258.015C314.63 271.573 293.238 289.183 278.597 272.404C263.876 255.533 266.174 216.661 274.904 196.961C292.321 157.66 319.758 126.473 342.594 95.9016C366.6 63.7638 402.021 22.6472 436.549 41.3897C459.497 53.8465 461.18 96.2996 453.015 125.275C450.896 132.793 436.609 178.751 451.258 177.951C475.808 176.609 493.037 127.491 518.59 154.293C527.538 163.678 524.657 181.78 523.006 195.309C519.942 220.433 507.531 243.783 499.995 265.427C495.623 277.981 491.078 291.357 492.448 306.82C493.2 315.314 494.868 331.564 501.76 333.128C508.221 334.595 513.608 328.073 518.544 323.045C525.963 315.486 533.787 308.991 541.304 301.687C553.773 289.571 622.232 213.29 626.974 276.697C628.299 294.416 628.998 315.08 625.696 331.765Z" fill="#F9C558"/>
<path d="M265.93 458.088C231.281 452.908 218.143 448.788 198.056 433.02C198.056 433.02 187.577 421.747 176.41 415.615C165.243 409.484 138.475 410.119 129.03 420.918C119.886 431.373 121.1 438.339 117.207 450.941C112.833 465.099 129.477 490.993 140.616 498.191C165.846 514.496 201.989 522.103 233.688 516.043C245.621 513.761 257.437 508.847 269.038 505.037L311.669 491.034C324.792 486.723 337.9 481.571 351.728 483.323C370.14 485.656 357.877 500.907 350.264 508.394C333.611 524.768 321.427 540.904 308.777 559.775C300.117 572.695 303.717 583.156 314.099 593.436C325.48 604.706 348.801 606.99 364.227 611.245C372.153 613.431 384.292 616.502 384.972 625.616C385.509 632.803 369.012 645.161 364.15 649.782C354.555 658.9 354.547 669.522 360.511 679.274C365.635 687.65 382.85 695.016 392.818 697.262C408.865 700.877 426.993 696.985 442.313 702.87C455.332 707.872 468.83 714.045 478.106 724.026C486.804 733.383 493.317 743.521 505.518 749.448C526.698 759.737 554.625 748.03 573.279 735.437C590.77 723.629 629.521 691.101 607.051 672.895C588.932 658.213 568.576 662.999 545.944 660.432C529.719 658.592 514.546 653.233 498.069 651.795C480.106 650.227 460.203 651.567 443.495 645.358C424.361 638.248 439.568 621.948 449.246 613.054C461.122 602.14 471.481 586.843 456.257 575.342C438.466 561.901 367.687 591.26 379.44 550.486C383.375 536.836 404.848 528.046 416.921 521.832C435.749 512.142 455.052 499.717 463.541 480.946C478.899 446.988 382.648 457.222 368.711 457.997C334.062 459.924 299.912 463.169 265.93 458.088Z" fill="#00B99A"/>
<path d="M501.244 1101.14C514.875 1085.36 526.271 1066.08 538.235 1048.62L542.085 1037.98C548.964 1011.69 521.98 1028.38 502.868 1040.27C492.064 1046.99 482.02 1063.49 472.518 1073.05C456.173 1089.49 437.248 1101.92 418.26 1100.5C392.24 1098.54 377.228 1070.36 390.615 1038.49C400.341 1015.34 417.597 996.37 429.795 974.783C437.975 960.307 452.794 926.79 440.156 916.065C428.531 906.199 405.599 916.031 391.062 921.083C382.308 924.125 364.466 930.713 358.563 921.87C356.098 918.178 363.362 909.177 365.381 906.23C374.129 893.467 385.803 877.106 387.625 861.786C389.826 843.278 381.544 830.655 370.18 822.442C346.81 805.551 320.713 801.898 290.548 802.98C258.538 804.127 213.729 801.74 182.778 829.901C172.745 839.03 160.232 856.361 157.432 870.515C155.241 881.596 163.952 888.39 170.604 891.749C186.175 899.611 207.145 899.822 225.658 897.415C249.614 894.3 272.302 883.095 296.148 876.441C308.909 872.88 322.955 883.745 315.765 901.109C306.065 924.533 286.242 942.043 276.011 965.167C268.005 983.263 279.533 994.419 291.129 999.184C303.786 1004.39 319.708 1000.67 334.065 995.523C343.481 992.149 370.047 979.487 372.314 995.187C374.335 1009.19 364.188 1027.13 357.388 1039.98C347.312 1059.01 333.763 1079.24 327.018 1099.67C321.411 1116.65 323.436 1126.41 334.77 1134.02C364.669 1154.1 407.011 1142.83 443.878 1133.97C462.484 1129.5 486.121 1118.64 501.244 1101.14Z" fill="#8B7FFF"/>
<path d="M207.525 115.066C205.721 104.431 202.96 91.2357 197.075 86.0291L187.975 72.0158C181.178 63.3798 187.197 71.0058 180.731 61.4317C174.127 51.6517 168.489 39.8553 158.048 38.1715C147.046 36.3972 145.619 48.5496 146.755 62.5408C147.28 68.9959 150.043 106.898 139.29 102.937C132.646 100.49 125.421 88.0871 121.553 80.4431C117.231 71.9009 115.071 61.8329 109.838 54.0141C99.5458 38.6391 77.8641 45.1787 64.0918 50.701C46.8501 57.6143 15.1839 79.9926 24.3469 111.804C30.2027 132.134 40.5754 152.093 28.005 175.139C25.8781 179.038 10.0768 155.397 7.13189 152.999C-0.588953 146.714 -19.5741 141.06 -27.5558 153.794C-35.6132 166.648 -19.6669 193.525 -15.4268 200.971C-12.6409 205.863 1.05327 235.253 -14.0088 235.171C-28.9033 235.089 -43.9457 223.772 -54.7226 210.951C-67.7457 195.458 -81.857 182.024 -94.9594 166.652C-105.808 153.923 -126.403 137.074 -141.762 151.421C-157.205 165.846 -156.614 200.849 -148.757 218.957C-133.083 255.083 -107.046 284.413 -85.5766 312.968C-63.0073 342.985 -29.4303 381.618 5.87746 366.479C29.344 356.417 32.886 318.394 25.9999 291.987C24.2133 285.136 11.9569 243.188 26.5536 244.621C51.0158 247.022 66.0722 291.95 92.7691 269.139C102.118 261.152 100.033 244.763 98.9777 232.539C97.0177 209.839 85.6449 188.275 79.0662 168.48C75.2502 156.998 71.2965 144.771 73.3421 130.958C74.4657 123.37 76.8443 108.866 83.7961 107.798C90.3135 106.797 95.4091 112.913 100.118 117.667C107.198 124.814 114.728 131.025 121.916 137.948C133.838 149.431 198.874 221.238 206.388 164.557C208.488 148.717 210.092 130.203 207.525 115.066Z" fill="#7DE2F2"/>
<path d="M202.776 1048.65C199.175 1023.31 196.898 1014.53 190.732 1002.2C183.467 987.685 183.495 983.318 173.414 977.26C163.332 971.202 159.988 967.724 146.1 968.678C130.627 969.74 113.982 990.65 113.982 990.65C109.913 994.434 104.211 1000.83 101.312 1004.86C96.7829 1011.16 76.5331 1047.4 58.9402 1080.68C51.3089 1095.12 42.5835 1097.45 37.9867 1086.26C37.1075 1084.12 37.8704 1069.14 39.6836 1052.98C45.243 1003.38 46.7706 980.453 44.9304 974.227C42.4978 965.991 34.1462 956.61 26.8668 953.934C3.21144 945.24 -25.7981 960.481 -41.0503 989.615C-50.4975 1007.66 -59.0401 1019.58 -63.3073 1020.67C-69.5423 1022.26 -71.7577 1015.4 -73.106 990.316C-74.0979 971.832 -75.8677 962.439 -79.805 954.735C-92.1459 930.586 -118.761 924.645 -145.2 940.14C-171.451 955.525 -173.794 973.207 -158.512 1040.64C-152.845 1065.65 -152.109 1072.3 -152.723 1092.95C-153.688 1125.34 -148.168 1138.89 -132.391 1142.86C-113.583 1147.6 -97.0493 1137.44 -67.4203 1102.95C-48.7647 1081.23 -43.6992 1077.96 -37.5843 1083.7C-33.2935 1087.72 -33.2987 1087.52 -36.2241 1126.79C-38.191 1153.18 -34.9893 1173.63 -26.743 1187.35C-7.17328 1219.91 6.83616 1225.88 30.6138 1211.83C53.4564 1198.33 68.8513 1176.56 103.619 1108.6C114.801 1086.75 119.68 1081.76 125.252 1086.46C128.19 1088.94 125.538 1123.5 121.135 1140.15L116.911 1196.93C119.389 1213.44 127.326 1229.38 137.133 1237.52C147.009 1245.72 165.445 1247.8 179.656 1242.31C197.977 1235.23 206.188 1225.3 215.633 1198.82C224.344 1174.4 224.175 1140.21 215.182 1107.9C209.629 1087.95 205.683 1069.1 202.776 1048.65Z" fill="#FE8363"/>
<path d="M-240.767 665.494C-242.747 654.89 -244.713 641.553 -240.989 634.635L-237.288 618.341C-233.892 607.889 -236.906 617.124 -234.145 605.906C-231.325 594.447 -230.108 581.43 -220.891 576.243C-211.179 570.779 -205.642 581.69 -201.877 595.213C-200.14 601.452 -189.643 637.976 -180.92 630.546C-175.529 625.955 -173.032 611.82 -172.043 603.31C-170.936 593.801 -172.387 583.607 -170.176 574.461C-165.827 556.478 -143.221 555.127 -128.389 555.553C-109.82 556.087 -72.3739 566.152 -69.9867 599.17C-68.4611 620.271 -71.3024 642.585 -51.5463 659.871C-48.2035 662.796 -41.5393 635.152 -39.6036 631.885C-34.5286 623.32 -18.6641 611.458 -6.77582 620.651C5.22507 629.932 -0.45775 660.662 -1.86547 669.114C-2.79036 674.668 -5.49192 706.978 8.61502 701.699C22.5651 696.479 32.7732 680.663 38.4592 664.909C45.3303 645.872 53.9336 628.391 60.9209 609.439C66.7065 593.747 80.2152 570.822 99.5839 578.982C119.059 587.186 130.592 620.239 129.473 639.947C127.24 679.263 112.934 715.781 102.647 749.993C91.8336 785.958 73.6649 833.81 35.3012 831.796C9.80353 830.458 -6.6523 795.997 -9.30956 768.838C-9.99899 761.791 -12.9841 718.191 -26.1878 724.577C-48.3156 735.279 -46.9292 782.642 -79.8613 770.455C-91.3933 766.188 -95.097 750.087 -98.3283 738.251C-104.329 716.27 -101.103 692.106 -101.765 671.257C-102.15 659.163 -102.662 646.323 -109.352 634.066C-113.027 627.334 -120.268 614.544 -127.161 615.942C-133.624 617.253 -136.293 624.753 -139.071 630.841C-143.246 639.993 -148.168 648.423 -152.523 657.402C-159.746 672.296 -195.98 762.146 -222.608 711.547C-230.05 697.407 -237.949 680.586 -240.767 665.494Z" fill="#FFC7C7"/>
</g>
<defs>
<clipPath id="clip0_222_206">
<rect width="680" height="1266" fill="white"/>
</clipPath>
</defs>
</svg>
