<svg width="680" height="1266" viewBox="0 0 680 1266" fill="none" xmlns="http://www.w3.org/2000/svg">
<g clip-path="url(#clip0_222_207)">
<path d="M199.273 130.649C202.874 105.311 205.151 96.5327 211.317 84.2048C218.582 69.6849 218.554 65.3176 228.636 59.26C238.717 53.2024 242.061 49.7241 255.949 50.6776C271.422 51.7399 288.067 72.6501 288.067 72.6501C292.136 76.4344 297.838 82.8277 300.737 86.8601C305.266 93.1597 325.516 129.396 343.109 162.684C350.74 177.125 359.466 179.448 364.062 168.262C364.942 166.122 364.179 151.144 362.365 134.977C356.806 85.3778 355.278 62.4532 357.119 56.2274C359.551 47.9907 367.903 38.61 375.182 35.9336C398.838 27.2396 427.847 42.4807 443.099 71.6152C452.547 89.6604 461.089 101.58 465.356 102.67C471.591 104.263 473.807 97.3995 475.155 72.3157C476.147 53.8319 477.917 44.4393 481.854 36.7353C494.195 12.5865 520.81 6.64467 547.249 22.1404C573.5 37.5254 575.843 55.2067 560.561 122.64C554.894 147.652 554.159 154.301 554.772 174.952C555.737 207.343 550.217 220.893 534.44 224.862C515.632 229.596 499.098 219.437 469.469 184.95C450.814 163.233 445.748 159.964 439.633 165.7C435.343 169.724 435.348 169.521 438.273 208.785C440.24 235.183 437.038 255.635 428.792 269.352C409.222 301.905 395.213 307.883 371.435 293.828C348.593 280.325 333.198 258.556 298.43 190.603C287.248 168.748 282.369 163.755 276.797 168.462C273.859 170.941 276.511 205.496 280.914 222.149L285.138 278.927C282.66 295.445 274.723 311.378 264.916 319.523C255.04 327.722 236.604 329.797 222.393 324.305C204.072 317.226 195.861 307.302 186.416 280.82C177.705 256.397 177.874 222.206 186.867 189.898C192.421 169.946 196.366 151.104 199.273 130.649Z" fill="#FE8363"/>
<path d="M237.195 810.243C238.418 799.525 240.458 786.2 246.05 780.681L254.375 766.193C260.692 757.2 255.097 765.142 261.032 755.231C267.095 745.106 272.083 733.021 282.417 730.771C293.306 728.401 295.392 740.458 295.018 754.49C294.845 760.965 294.148 798.961 304.669 794.421C311.171 791.616 317.71 778.839 321.157 770.996C325.008 762.231 326.617 752.06 331.417 743.969C340.858 728.057 362.863 733.407 376.915 738.172C394.508 744.138 427.344 764.761 419.925 797.023C415.183 817.642 405.911 838.135 419.716 860.464C422.052 864.241 436.544 839.776 439.355 837.222C446.722 830.525 465.372 823.848 474.034 836.128C482.779 848.525 468.318 876.23 464.489 883.895C461.973 888.932 449.898 919.023 464.933 918.121C479.801 917.23 494.205 905.111 504.269 891.723C516.43 875.545 529.79 861.363 542.037 845.301C552.178 832.002 571.826 814.058 587.942 827.548C604.147 841.112 605.46 876.095 598.6 894.604C584.914 931.528 560.511 962.232 540.626 991.911C519.722 1023.11 488.296 1063.51 452.217 1050.32C428.238 1041.55 422.634 1003.77 428.073 977.03C429.485 970.092 439.442 927.539 424.944 929.764C400.649 933.492 388.058 979.172 360.16 957.847C350.391 950.38 351.581 933.902 351.97 921.638C352.693 898.865 362.876 876.715 368.369 856.591C371.555 844.919 374.837 832.495 372.044 818.813C370.509 811.298 367.345 796.945 360.345 796.257C353.783 795.611 349.028 801.996 344.584 806.998C337.904 814.52 330.723 821.131 323.922 828.435C312.641 840.549 251.608 915.788 241.022 859.598C238.063 843.896 235.455 825.497 237.195 810.243Z" fill="#7DE2F2"/>
<path d="M88.9325 968.397C73.1975 933.678 65.1841 921.259 43.9343 905.549C43.9343 905.549 29.955 898.409 20.6444 888.764C11.3339 879.118 3.58389 850.69 10.8966 836.999C17.9755 823.745 24.9728 822.613 35.7303 814.149C47.8163 804.639 77.6116 813.215 87.9261 822.461C111.29 843.405 129.796 878.859 133.931 914.36C135.487 927.725 134.506 941.878 134.506 955.421V1005.19C134.506 1020.51 133.702 1036.11 139.681 1050.08C147.643 1068.67 158.307 1050.47 163.043 1039.85C173.403 1016.64 184.931 998.214 198.912 978.352C208.485 964.753 219.546 964.926 232.553 972.308C246.811 980.4 256.259 1004.19 265.116 1018.97C269.666 1026.56 276.371 1038.29 285.243 1035.85C292.239 1033.93 298.831 1012.27 301.704 1005.55C307.373 992.281 317.462 988.595 328.588 991.505C338.144 994.005 350.514 1009.6 355.759 1019.32C364.202 1034.98 366.161 1055.43 376.533 1069.54C385.347 1081.53 395.425 1093.61 407.802 1099.94C419.406 1105.86 431.07 1109.22 440.508 1120.02C456.894 1138.78 454.486 1172.26 448.343 1196.28C442.584 1218.8 423.773 1270.89 399.464 1253.51C379.86 1239.5 378.055 1216.39 368.554 1193.43C361.743 1176.97 351.917 1162.84 345.408 1145.97C338.313 1127.59 333.375 1106.15 322.262 1090.69C309.536 1072.99 298.795 1094.66 293.365 1107.93C286.703 1124.23 275.403 1140.44 259.725 1128.38C241.403 1114.28 247.208 1029.53 212.139 1056.03C200.397 1064.9 198.748 1090.57 196.612 1105.45C193.281 1128.64 187.501 1153.28 172.316 1168.73C144.847 1196.66 124.533 1091.69 120.92 1076.74C111.938 1039.56 104.364 1002.45 88.9325 968.397Z" fill="#FFC7C7"/>
<path d="M64.8905 411.114C75.6763 391.743 90.0662 373.27 102.714 354.919L111.211 347.139C132.802 330.523 124.253 363.449 118.143 386.794C114.689 399.99 102.448 416.084 96.1956 429.052C85.4396 451.36 78.8084 474.721 84.3991 492.975C92.0602 517.989 120.316 522.323 145.336 497.187C163.515 478.924 176.283 454.773 192.517 434.65C203.403 421.155 229.549 393.986 241.882 402.487C253.228 410.306 249.801 436.663 248.668 452.931C247.987 462.726 246.255 482.838 255.393 485.377C259.209 486.438 265.48 475.893 267.615 472.795C276.863 459.377 288.612 441.723 301.693 434.203C317.496 425.118 330.507 428.602 340.336 436.78C360.552 453.598 369.727 478.053 375.66 508.3C381.956 540.398 394.288 583.839 376.543 624.969C370.791 638.302 358.379 657.149 346.548 665.201C337.287 671.504 329.312 665.421 324.835 660.093C314.354 647.623 309.382 626.955 307.276 607.741C304.552 582.877 309.244 556.25 309.663 530.174C309.888 516.221 297.109 506.378 283.453 519.972C265.031 538.31 254.13 564.456 236.093 583.207C221.978 597.881 209.519 590.639 202.673 580.945C195.201 570.364 194.842 553.224 196.098 537.1C196.921 526.525 202.012 495.517 187.663 499.133C174.868 502.358 161.374 519.094 151.611 530.614C137.144 547.686 122.409 568.642 105.956 582.937C92.2776 594.82 83.2173 596.459 73.9242 588.086C49.4096 565.999 49.672 519.902 49.0617 480.121C48.7537 460.045 52.9227 432.609 64.8905 411.114Z" fill="#0590CB"/>
<path d="M488.221 557.132C487.115 572.334 486.266 591.254 490.727 599.257L495.995 620.042C500.43 632.985 496.497 621.554 500.344 635.782C504.273 650.317 506.685 667.587 516.667 671.133C527.186 674.871 531.939 657.892 534.63 638.032C535.872 628.869 543.48 575.104 553.151 581.896C559.128 586.093 562.96 604.397 564.737 615.612C566.723 628.144 566.127 642.586 569.223 654.201C575.31 677.04 598.785 670.25 614.072 664.008C633.209 656.193 671.006 628.186 670.545 582.292C670.251 552.963 665.338 523.649 684.218 492.557C687.412 487.297 696.747 522.413 699.037 526.125C705.039 535.856 722.482 545.96 733.95 528.897C745.526 511.673 736.931 471.977 734.727 461C733.28 453.788 727.625 410.801 742.668 412.607C757.543 414.394 769.492 432.043 776.763 451.335C785.549 474.648 795.987 495.178 804.886 518.329C812.254 537.498 828.243 563.572 847.531 545.062C866.925 526.451 875.911 477.019 873.008 450.598C867.216 397.889 849.2 353.6 835.539 310.919C821.179 266.051 798.167 207.796 758.709 225.185C732.484 236.742 718.536 289.97 718.198 327.985C718.11 337.848 718.89 398.386 704.683 394.727C680.872 388.594 678.107 323.541 645.162 352.715C633.626 362.931 631.226 386.279 628.937 403.638C624.686 435.873 630.16 467.562 631.323 496.218C631.998 512.84 632.607 530.528 626.781 549.78C623.581 560.355 617.233 580.543 609.987 581.27C603.195 581.951 599.772 572.752 596.363 565.519C591.237 554.645 585.405 545.04 580.11 534.47C571.327 516.936 525.927 408.363 502.901 487.461C496.466 509.565 489.795 535.496 488.221 557.132Z" fill="#F9C558"/>
<path d="M750.139 987.726C771.952 981.281 780.366 977.113 793.859 963.165C793.859 963.165 801.101 953.452 808.427 947.806C815.753 942.159 832.297 940.89 837.433 948.902C842.404 956.657 841.189 962.311 842.765 972.133C844.534 983.168 832.502 1004.99 825.123 1011.48C808.408 1026.2 785.508 1034.69 766.269 1031.94C759.027 1030.91 752.031 1027.77 745.097 1025.49L719.612 1017.12C711.766 1014.54 703.987 1011.29 695.302 1013.61C683.739 1016.7 690.324 1028.08 694.545 1033.57C703.776 1045.56 710.254 1057.66 716.839 1071.91C721.347 1081.67 718.422 1090.28 711.306 1099.19C703.507 1108.97 688.904 1112.34 679.064 1116.77C674.008 1119.04 666.283 1122.31 665.256 1129.64C664.446 1135.43 673.847 1144.22 676.553 1147.59C681.893 1154.25 681.193 1162.74 676.849 1170.94C673.119 1177.98 661.963 1185.02 655.637 1187.48C645.455 1191.43 634.481 1189.52 624.597 1195.25C616.199 1200.11 607.425 1205.95 601.015 1214.55C595.004 1222.61 590.296 1231.15 582.342 1236.7C568.535 1246.34 552.009 1238.83 541.287 1230C531.233 1221.71 509.382 1198.26 524.514 1182.21C536.716 1169.26 549.011 1171.74 563.204 1168.18C573.379 1165.63 583.136 1160.34 593.441 1158.09C604.676 1155.65 616.919 1155.4 627.684 1149.32C640.011 1142.36 631.671 1130.33 626.265 1123.86C619.631 1115.92 614.228 1104.37 624.425 1094.16C636.341 1082.23 678.247 1101.01 673.672 1069.18C672.141 1058.52 659.419 1052.91 652.351 1048.74C641.328 1042.24 630.193 1033.58 626.179 1019.13C618.918 992.987 677.877 994.782 686.461 994.477C707.802 993.718 728.746 994.046 750.139 987.726Z" fill="#00B99A"/>
</g>
<defs>
<clipPath id="clip0_222_207">
<rect width="680" height="1266" fill="white"/>
</clipPath>
</defs>
</svg>
